<?xml version="1.0" encoding="UTF-8"?>
<!DOCTYPE svg PUBLIC "-//W3C//DTD SVG 1.1//EN" "http://www.w3.org/Graphics/SVG/1.1/DTD/svg11.dtd">
<!-- Creator: CorelDRAW -->
<svg xmlns="http://www.w3.org/2000/svg" xml:space="preserve" width="210mm" height="297mm" style="shape-rendering:geometricPrecision; text-rendering:geometricPrecision; image-rendering:optimizeQuality; fill-rule:evenodd; clip-rule:evenodd"
viewBox="0 0 210 297"
 xmlns:xlink="http://www.w3.org/1999/xlink"
 version="1.1">
 <defs>
  <style type="text/css">
   <![CDATA[
    .str1 {stroke:#660066;stroke-width:0.0762}
    .str8 {stroke:#CEA582;stroke-width:0.0762}
    .str5 {stroke:#330066;stroke-width:0.2}
    .str6 {stroke:#660066;stroke-width:0.2}
    .str9 {stroke:#9966FF;stroke-width:0.2}
    .str3 {stroke:#E6E6E6;stroke-width:0.2}
    .str4 {stroke:#EABA8D;stroke-width:0.2}
    .str7 {stroke:red;stroke-width:0.2}
    .str2 {stroke:white;stroke-width:0.2}
    .str0 {stroke:white;stroke-linecap:round}
    .fil1 {fill:none}
    .fil8 {fill:none;fill-rule:nonzero}
    .fil11 {fill:#000066}
    .fil5 {fill:#330066}
    .fil0 {fill:#660066}
    .fil7 {fill:#993366}
    .fil12 {fill:#9966FF}
    .fil10 {fill:#B9E6EE}
    .fil9 {fill:#CEA582}
    .fil3 {fill:#E6E6E6}
    .fil4 {fill:#EABA8D}
    .fil6 {fill:red}
    .fil2 {fill:white}
   ]]>
  </style>
 </defs>
 <g id="Layer_x0020_1">
  <metadata id="CorelCorpID_0Corel-Layer"/>
  <g id="_428056384">
   <path id="_432129960" class="fil0" d="M155.875 227.972l39.4787 0 1.1612 -0.6483c1.5975,-0.9406 2.541,-1.3697 4.011,-3.0578 1.3997,-1.6074 1.716,-3.0883 2.8484,-4.7706 1.0414,-17.0601 0.2453,-67.0865 0.1757,-87.5057 -0.1853,-54.4104 6.5475,-48.9001 -36.889,-49.1761 -20.8787,-0.1326 -19.0635,5.5766 -19.1048,24.6046l-0.0018 86.0002c0.027,21.8553 -3.0861,28.2162 8.3206,34.5537zm28.6407 -43.8092c-6.8902,3.1046 -1.8858,12.369 4.6195,9.5422 5.7185,-2.4849 2.5453,-12.7707 -4.6195,-9.5422zm-25.7514 -80.3578c1.497,1.6794 -2.2121,1.4417 2.528,1.3233l30.9919 0.0992 0.0021 -11.118 -33.4425 0.0098 -0.0427 9.3576 -0.0368 0.3281zm0.1324 23.6918l33.4084 0.0875 -0.0103 -11.2146 -15.6632 0.114 -0.7671 0.0227 -17.036 -0.1748 0.0682 11.1652z"/>
   <path id="_432129720" class="fil0" d="M29.6279 61.9995c-1.0658,1.3884 -1.2334,1.5079 -2.5885,2.6338 -3.6567,7.5242 -2.3233,15.5426 -2.3538,25.1238 -0.0301,9.4642 -0.0137,18.9459 -0.0031,28.4108 0.0201,17.9618 -0.9573,38.7582 0.1694,56.3604l1.5253 4.2966c2.2957,0.6454 2.8589,3.9532 8.4274,4.5389 5.6833,0.5978 89.69,-0.1012 101.715,-0.2237l0.0814 -22.2056 -48.941 -0.0063 -51.4451 0.0192 -0.2405 -89.1839 17.1722 -0.1134 9.9782 0.0146 12.8963 -0.0015 10.4623 0.0302 58.6987 -0.0433 9.9782 0.0146 25.7074 0.1217c0.9013,-5.283 -3.8708,-10.0512 -8.2598,-11.0212 -3.4929,-0.7716 -92.6041,-0.2359 -103.351,-0.2581 -13.0051,-0.0268 -27.7101,-1.191 -39.6289,1.4924z"/>
   <g>
    <path id="_432129888" class="fil1 str0" d="M139.186 203.929l19.3745 0c0.4433,-0.2022 0.8887,-0.1822 1.4229,-0.489 0.4195,-0.2409 0.8451,-0.555 1.0771,-0.8429 0.6053,-0.7516 1.0157,-1.5011 1.0369,-2.8062 0.0411,-2.5244 0,-5.087 0,-7.6155l0 -30.5298c0,-2.5237 0.0508,-5.0993 -0.0012,-7.6164 -0.0336,-1.6256 -0.8698,-2.9329 -2.1565,-3.6046 -0.4944,-0.2578 -0.9881,-0.2799 -1.377,-0.4589l-19.3778 0c-0.3928,0.1961 -0.9164,0.218 -1.4132,0.5091 -1.2708,0.7443 -2.0196,1.9709 -2.0456,3.6284 -0.0395,2.5264 -0.0011,5.0861 -0.0011,7.6162l0 30.456c0,2.5304 -0.0381,5.0898 0.0012,7.6166 0.0205,1.2997 0.4141,2.0429 1.0246,2.7983 0.8493,1.0509 1.9688,1.1091 2.4352,1.3387zm21.7044 -47.9357l0 -0.0302 -23.966 0.0302 0 41.9086 0 0.0101 23.9748 0 0 -41.9187 -0.0088 0z"/>
    <path id="_4321298881" class="fil0" d="M139.186 203.929l19.3745 0c0.4433,-0.2022 0.8887,-0.1822 1.4229,-0.489 0.4195,-0.2409 0.8451,-0.555 1.0771,-0.8429 0.6053,-0.7516 1.0157,-1.5011 1.0369,-2.8062 0.0411,-2.5244 0,-5.087 0,-7.6155l0 -30.5298c0,-2.5237 0.0508,-5.0993 -0.0012,-7.6164 -0.0336,-1.6256 -0.8698,-2.9329 -2.1565,-3.6046 -0.4944,-0.2578 -0.9881,-0.2799 -1.377,-0.4589l-19.3778 0c-0.3928,0.1961 -0.9164,0.218 -1.4132,0.5091 -1.2708,0.7443 -2.0196,1.9709 -2.0456,3.6284 -0.0395,2.5264 -0.0011,5.0861 -0.0011,7.6162l0 30.456c0,2.5304 -0.0381,5.0898 0.0012,7.6166 0.0205,1.2997 0.4141,2.0429 1.0246,2.7983 0.8493,1.0509 1.9688,1.1091 2.4352,1.3387zm21.7044 -47.9357l0 -0.0302 -23.966 0.0302 0 41.9086 0 0.0101 23.9748 0 0 -41.9187 -0.0088 0z"/>
   </g>
   <rect class="fil2 str1" x="136.925" y="155.993" width="23.9748" height="41.9187"/>
   <circle class="fil2 str2" cx="103.555" cy="171.912" r="5.54354"/>
   <path class="fil0" d="M87.8407 200.53c-0.9323,0.6844 0.137,0.109 -1.6296,0.8513 -44.1241,18.5445 83.5132,16.987 36.8955,0.012 -2.8588,-1.041 1.3963,1.16 -1.7943,-0.7939l0.0063 -10.478 -33.4308 -0.0137 -0.0471 10.4223z"/>
   <g id="_432124872">
    <polygon id="_432128928" class="fil3 str3" points="71.1566,188.914 74.9217,185.59 94.651,204.86 91.6088,209.016 "/>
    <path id="_432129144" class="fil4 str4" d="M72.8533 143.876l4.3208 -2.8987c0.6686,7.0008 -1.0541,10.9095 -6.483,10.0262 -0.7047,3.4916 -2.5035,5.3934 -6.1861,4.5584 -1.8003,3.4571 -4.5502,5.1148 -8.5594,4.3875l-1.8328 2.6901c-1.1809,1.5775 -3.0458,1.8363 -5.253,1.4351l-4.0967 -1.6917c0.6989,-3.0909 2.3424,-5.0103 6.5564,-3.9112 -0.3908,-3.5563 1.3119,-5.9159 8.1155,-5.3601 0.2068,-3.797 2.2914,-5.5307 6.6293,-4.7884 1.1574,-3.31 3.1949,-5.1652 6.789,-4.4472z"/>
    <path id="_432128832" class="fil4" d="M80.0304 132.321l-0.3233 -0.1784 -0.3233 -0.1784 -0.3233 -0.1785c-0.2064,0.142 -0.1067,0.1363 -0.2724,-0.1045 -0.4174,-0.0457 -0.6677,-0.1543 -0.9784,-0.2375l-0.2122 -0.0359c-1.0792,0.0108 -2.2223,0.0565 -3.5496,0.3771 -0.559,0.39 -0.3615,0.2165 -1.0758,0.1818l-0.3779 -0.1409c-0.2211,-0.0991 -0.2361,-0.038 -0.0404,-0.1727l0.0424 -0.2297 0.0424 -0.2297 0.0424 -0.2296 0.0424 -0.2297 0.0425 -0.2297 0.0424 -0.2296c-0.2855,0.0106 -0.4234,0.0953 -0.7715,0.3193 -1.771,1.1394 -1.0312,1.0061 -3.6539,-0.1481 -0.5769,-0.2538 -0.8373,-0.2868 -1.4348,-0.5897 -1.7038,-0.8634 -2.214,-0.924 -4.0387,-1.9226 -1.2206,-0.6679 -2.0468,-1.1961 -3.4074,-1.4832 -0.9579,-0.2021 0.0046,0.1246 -1.5609,0.0929 -0.7757,-0.0157 -7.0996,1.582 -7.6945,1.7987 -1.1183,0.4073 -5.2583,1.4305 -6.207,1.46l-1.5822 0.2083c-1.3022,0.328 -0.3804,0.1242 -1.4653,0.2185 -0.3505,0.0305 -0.4879,0.0964 -0.8531,0.1181l-3.0044 0.1932c-0.8157,0.11 -0.6205,0.1659 -1.4369,0.0649 -0.6286,-0.0777 -0.694,0.1444 -2.2556,-0.0034 -0.089,-0.0084 -0.3359,-0.0303 -0.3507,-0.0302l-3.3864 0.3325c-1.1541,-0.0903 -3.2379,0.1372 -4.419,0.0654 -0.0258,-0.0016 -0.0821,-0.0035 -0.1224,-0.0107 -0.2002,0.8738 0.7285,9.2282 0.7635,10.9267l0.3045 4.1418c0.166,1.2543 0.0608,0.4598 -0.1063,1.3864 -0.071,0.3942 0.3196,1.0824 0.4433,2.8227 0.0581,0.817 0.106,1.9684 0.2843,2.8475 0.5956,-0.1642 1.9424,0.8876 3.2344,1.476 0.9502,0.4328 1.8232,0.5387 2.8419,0.6863l0.2308 0.0365c0.7158,0.1057 2.9148,0.1283 3.4667,-0.1247 0.2415,-0.1106 0.5354,-0.2936 0.7901,-0.4164 0.0194,-0.0093 0.3633,-0.1659 0.3875,-0.1754l0.4943 -0.1544c1.5946,-1.4046 1.3625,-1.2157 3.1209,-1.4128 0.9625,-0.1078 2.2401,-0.309 3.1839,-0.5174 2.7281,-0.6024 3.923,-1.1387 6.6451,-2.2659 0.1214,-0.1991 0.0582,-0.2067 0.1877,-0.0184l0.1361 -0.0937c-0.0115,-0.2 -0.1332,-0.1756 0.084,-0.1692l5.5904 -3.2375c0.0495,-0.398 -0.4825,0.0338 0.2688,-0.4834l0.168 0.2441c1.4222,-0.8632 4.8455,-1.8766 6.5341,-2.4652 1.1156,-0.3888 2.1483,-0.687 3.2735,-0.9783 0.6786,-0.1757 2.5752,-0.673 3.0171,-0.6917 2.9839,-1.2118 9.227,-2.3934 10.8661,-5.4276l0.1382 -0.3816 0.0425 -0.2297 0.0946 -0.4661 -0.1724 -0.6832 0.1025 -0.2711 -0.1155 -0.3214 -0.0937 -0.1361c-0.1563,-0.4596 -0.1115,-0.4301 -0.2851,-0.8061l-0.6807 -0.9349 -0.3743 -0.3438z"/>
    <path id="_432127944" class="fil4" d="M100.323 151.232c-0.863,0.2393 -0.9721,-0.4312 -1.861,0.0779 1.2051,1.506 1.7008,3.8514 0.6092,4.9943 -1.4381,1.5058 -3.3967,2.0809 -4.6759,0.8121 -0.5194,1.1675 -2.1003,3.2873 -2.894,4.4259l-6.9532 9.9973c-0.8651,1.3113 -1.1115,1.3376 -1.3348,1.7723l-1.639 2.666c-0.7065,1.3422 -1.9529,2.7306 -3.1823,4.6374 -0.2743,0.4254 -0.3009,0.5657 -0.4772,0.8619 -0.8223,1.382 -0.1209,-0.0027 -1.0144,1.8314 -0.5775,1.1856 -0.2989,0.211 -0.8671,1.9787 -0.1698,0.5281 -0.037,0.5096 -0.6008,0.9192 0.9629,1.3117 3.0196,2.9671 4.2785,4.2191 0.9711,0.9657 3.7346,3.3856 4.2879,4.2963 0.519,0.2135 4.1257,3.9306 4.5898,4.365 1.5582,1.4585 3.0745,2.8907 4.6755,4.5176 0.301,-0.3833 2.6526,-2.2439 3.1162,-2.4761 2.4905,-1.2472 4.4804,-1.502 6.8538,-2.3396 0.755,-0.2664 2.9239,-0.8511 3.3958,-1.176 -0.2306,-0.9559 -0.1881,-1.8094 -0.3194,-2.6926 -0.1419,-0.9547 -0.0839,-1.9182 -0.347,-2.6626 -0.5451,-0.2961 -0.4838,-0.3977 0.0468,-0.8342 -0.1607,-0.7084 -0.2789,-1.2345 -0.2553,-2.0296 -0.4758,-0.4781 -0.3746,-0.1118 -0.1398,-0.5052l-0.539 -1.6658c-1.5509,-1.4669 -1.3991,-1.4033 -1.4787,-3.3744 -0.0493,-1.2227 -0.0562,-2.6605 -0.2339,-3.6346l-1.132 2.191c-0.32,0.4689 -0.5671,1.6204 -2.0265,1.2758 -2.2263,-0.5257 -3.598,-2.8789 -4.4267,-4.8426 -0.1799,-0.4261 -0.6152,-2.6367 -0.6797,-3.0942 -0.7054,-5.0047 1.2182,-5.6002 2.547,-8.3171 0.1949,-0.3986 0.2017,-0.546 0.4933,-0.9777 0.8101,-1.1993 2.6934,-4.1103 2.9587,-5.3911 0.25,-1.207 -0.4069,-0.2643 0.7808,-1.8741l0.3337 0.4848c0.1137,-0.6254 -0.0734,-1.4113 -0.0602,-2.1016 0.0038,-0.1987 0.0138,-0.1353 0.0118,-0.3419l-0.1228 -1.8057c-0.1788,-3.8071 -0.4356,-2.3242 -1.7181,-4.1873z"/>
    <path id="_432127848" class="fil5 str5" d="M80.8368 122.238l-2.4612 3.7147c-0.0044,0.0197 -0.0179,0.0693 -0.023,0.1047 -7.328,5.0437 -17.9558,12.3908 -0.5613,5.3983 0.3106,0.0832 0.561,0.1919 0.9783,0.2375 0.1434,-0.175 0.0279,-0.1399 0.2725,0.1045l0.3233 0.1785 0.3233 0.1784 0.3233 0.1784c0.2062,0.0464 0.0346,-0.3534 0.3743,0.3439l0.6807 0.9349c0.2069,0.0554 0.0928,-0.422 0.3215,0.2976 0.1138,0.358 0.052,0.2215 -0.0364,0.5085l0.0937 0.136c0.3995,0.3243 0.207,0.1181 0.1155,0.3214 0.1415,0.2056 0.1363,0.1067 -0.1026,0.2711l0.1725 0.6833c0.2059,0.515 0.2965,0.0747 -0.0946,0.4661l-0.0425 0.2296c0.0377,0.0961 0.0732,0.1829 0.1076,0.2634 -1.7196,2.9744 -8.4866,4.2843 -11.4427,5.4848 0.0213,0.038 0.0409,0.0697 0.0585,0.0963 -0.6889,0.1196 -2.1636,0.5059 -2.7449,0.6564 -1.1252,0.2914 -2.1578,0.5895 -3.2734,0.9783 -1.6886,0.5886 -5.1119,1.602 -6.5341,2.4652l-0.4368 0.2393 -7.7117 4.2272c-1.6585,0.6758 -2.8478,1.0974 -4.9316,1.5575 -0.9438,0.2084 -2.2215,0.4097 -3.184,0.5175 -1.7584,0.197 -1.5262,0.0081 -3.1209,1.4127l-0.348 0.7774c-0.5447,0.8936 -0.6526,1.366 -0.8011,2.5826 -0.3401,2.7883 2.3933,6.4454 6.4825,5.7525 0.5439,-0.0922 1.5556,-0.2307 1.7217,-0.7203 -0.5904,-1.5214 0.1872,-3.2527 1.99,-3.9632 1.371,-0.5404 3.4277,-0.372 4.4193,-0.2401l-0.2312 -2.9183c0.2475,-1.2048 3.5227,-2.4612 5.5313,-2.5275 1.7422,-0.0576 1.9178,0.4811 2.7301,0.1543 0.0017,-0.7261 -0.1074,-0.782 -0.2274,-1.49l-0.0911 -0.1377c1.2824,-1.8539 2.7195,-3.2068 5.1331,-3.3295 0.2877,-0.0146 0.459,-0.0102 0.8221,0.0175l0.9711 -0.0236c-0.2246,-1.3175 -0.2585,-1.4005 0.8144,-2.4757 1.0613,-1.0637 1.6955,-1.2234 2.9262,-1.7019l0.02 -0.0185c0.4017,-0.0122 0.9052,-0.0921 1.3352,-0.1334 0.7013,-0.0674 0.997,0.0605 1.6869,0.2026 0.8211,-0.4822 4.2853,-2.8996 4.6053,-2.9376 0.8245,-0.5674 1.6492,-1.2605 2.0684,-1.5335 0.541,-0.3524 1.7346,-1.0949 2.5486,-1.6453l0.0942 0.1367c0.7274,-0.7981 2.2508,-1.4364 2.6489,-1.977l4.5347 -1.178c2.3768,-0.6174 -5.5985,-7.6594 -8.8285,-12.8585z"/>
    <path id="_432128136" class="fil4" d="M111.086 149.422c-0.4721,1.0997 0.0046,1.0152 -1.085,2.2285 -0.7388,0.8224 -0.5942,1.2916 -0.4816,2.2524 0.1496,1.2764 0.4061,3.7826 0.2679,4.8174 -0.0673,0.5038 2.0651,25.4393 1.9453,26.3593 -0.1679,1.289 -0.9947,1.2914 -1.1552,2.0369 -0.0303,0.4419 -0.1764,0.9549 -0.2972,1.5054 -0.1542,0.7033 -0.2081,0.7539 -0.1104,1.6325 0.1147,1.0314 0.0557,2.1641 0.141,3.2701l0.3185 0.3822 -0.3938 0.2711c0.244,0.962 -0.0229,1.4147 0.1676,2.2905 0.7948,0.195 0.8404,0.1164 1.6824,-0.1583 0.1085,-0.0353 3.1626,0.0399 3.9957,-3.2966 0.2186,-0.8754 0.1941,-0.8306 0.2166,-1.6225 0.0105,-0.3706 0.078,-0.4601 0.1096,-0.811 0.0519,-0.5763 -0.0308,-0.3452 -0.0415,-0.8389 -0.0175,-0.8131 0.7374,-4.8943 1.1802,-5.7196 0.4431,-0.8258 0.1181,-0.3357 0.257,-1.0213 0.0067,-0.0333 0.0189,-0.0807 0.0275,-0.1136 0.0639,-0.2451 0.0755,-0.1799 0.1663,-0.4443 0.0989,-0.2882 0.1477,-0.4971 0.2384,-0.7873 0.9748,-3.1157 1.7796,-5.4647 1.6689,-8.9542 -0.1226,-3.8643 -1.5457,-6.5773 -1.6146,-7.7793l-0.5161 -2.1437c-0.0141,-0.0284 -0.0308,-0.0777 -0.0442,-0.105 -0.0124,-0.0255 -0.0265,-0.0752 -0.0387,-0.099 -0.2415,-0.4705 -0.0788,0.0346 -0.4204,-0.4999 -0.3847,-0.6019 0.0619,-1.2977 -0.031,-1.7275 -0.2224,-1.0281 -0.3062,0.8013 -0.4263,-1.8724l-0.218 -1.3466c-0.3285,-1.7125 -0.747,-2.8974 -1.214,-4.5072l-0.1523 -0.6683c-0.0064,-0.0226 -0.0237,-0.0677 -0.0302,-0.0898 -0.0113,-0.0386 -0.0784,-0.2248 -0.0884,-0.2766l-0.0209 -0.2052c-0.03,-0.248 0.0503,-0.2018 -0.1086,-0.51 -0.3222,-0.6253 -1.1994,-1.483 -1.5935,-1.4822l-1.8963 0.622 -0.4047 -0.588z"/>
    <path id="_432127896" class="fil4 str4" d="M25.1055 131.441c9.9943,-0.6181 18.4202,0.5972 25.8688,-2.828 2.8813,-1.3249 5.7853,-2.0073 8.9221,-1.9955 3.3666,1.8916 6.9768,3.5959 10.9664,5.0087l-1.1702 1.031 4.964 -0.9543 3.504 -0.0433c4.6799,0.727 4.9106,5.1807 -0.5888,8.3755l-10.7052 3.3455 -9.3655 3.3256c-3.0942,2.4596 -6.5881,4.3386 -10.6227,5.4318l-6.8115 1.1918 -3.5078 2.1136c-2.6516,0.5786 -5.8375,-0.0298 -9.7575,-2.2693 -3.9201,-2.2395 -1.5106,-21.3669 -1.5106,-21.3669l-0.1855 -0.3662z"/>
    <path id="_432128160" class="fil6" d="M80.0711 133.412c-1.2822,-1.1653 -3.0582,-1.2117 -4.4216,-0.6561 -1.1422,0.4654 -1.0421,1.1098 -0.8461,2.0277 0.4541,2.127 0.3754,4.0174 2.1344,3.8506 3.3453,-0.3171 5.2188,-3.3267 3.1333,-5.2222z"/>
    <path id="_432127344" class="fil6" d="M56.4875 156.087c-0.8002,-0.6838 -1.1951,-1.2058 -3.3094,0.5255 -1.5898,1.3017 -1.1152,1.6436 0.1989,1.8816 0.8647,0.1565 2.205,0.6021 3.0609,0.3159 1.4629,-0.4889 0.8677,-2.0238 0.0496,-2.723z"/>
    <path id="_432127584" class="fil7" d="M125.108 103.595c7.1544,10.3947 4.5277,24.621 -5.8669,31.7754 -10.3946,7.1544 -24.6209,4.5277 -31.7754,-5.8669 -7.1544,-10.3947 -4.5276,-24.621 5.867,-31.7754 10.3946,-7.1544 24.6209,-4.5277 31.7753,5.8669zm-2.4923 1.6023c6.2563,9.0897 3.9593,21.5302 -5.1304,27.7865 -9.0898,6.2563 -21.5303,3.9593 -27.7866,-5.1304 -6.2563,-9.0898 -3.9593,-21.5303 5.1304,-27.7866 9.0898,-6.2563 21.5303,-3.9593 27.7866,5.1305z"/>
    <path id="_432127656" class="fil6" d="M60.498 153.03c1.4845,1.5123 3.2119,0.779 4.9343,0.3965 0.2114,-0.6566 0.0466,-1.1521 -0.5382,-1.7744 -0.5427,-0.5776 -1.1023,-0.4833 -2.2812,-0.1853 -1.0792,0.2728 -0.0251,-0.0621 -0.5261,0.3416 -0.1435,0.1157 -0.471,0.2646 -0.8084,0.5094 -0.6353,0.4608 -0.2304,0.2784 -0.7804,0.7122z"/>
    <path id="_432127632" class="fil6" d="M48.5395 159.539c-1.4538,0.841 -2.7164,1.5863 -2.2337,3.1152 0.55,0.1889 2.5343,0.1013 3.2148,-0.3291 1.4089,-0.8911 -0.108,-2.1415 -0.9811,-2.7861z"/>
    <path id="_432127272" class="fil6" d="M67.1337 148.517c0.3547,0.3465 0.5647,0.4804 1.0046,0.6611 1.3746,0.5649 1.6561,0.162 3.7062,-0.5813 0.1883,-0.6427 -0.2311,-0.9261 -0.9726,-1.8201 -0.2502,0.0456 -0.6048,0.1089 -0.8618,0.1449 -1.7521,0.245 -1.3506,0.4491 -2.8764,1.5954z"/>
    <path id="_432127032" class="fil0 str6" d="M71.1566 188.914l-28.1432 27.8621c8.9681,7.1348 18.9551,11.7444 29.3321,15.3879l19.3981 -22.9526 -20.587 -20.2974z"/>
    <path id="_432126408" class="fil4 str4" d="M76.2003 186.613c1.0115,-4.5717 3.7505,-9.3228 8.207,-14.2523l1.3112 -2.1013c4.583,-5.978 8.8898,-12.1084 11.8456,-18.9847 4.8393,-0.4385 6.1123,2.8829 4.5346,9.2101l-6.9031 11.8192c-0.5915,3.8658 0.4263,6.624 1.8868,9.0775 3.0447,3.6089 5.4706,3.7908 6.8446,-1.8538l0.0927 6.2522 1.883 1.8619 1.2362 9.2246c-2.2512,2.0166 -5.9285,3.3252 -10.7288,4.076l-2.8791 2.8967 -17.3307 -17.2261z"/>
    <path id="_432126360" class="fil4 str4" d="M116.335 155.988l2.4494 11.0965 1.1064 5.1032 -2.4498 12.0624 -1.2286 5.2066 -0.9576 4.9449c-1.328,1.6609 -2.9643,2.2543 -4.7773,2.2355l-0.3291 -7.1421 0.2697 -2.6669 1.1827 -1.3404 -1.3923 -20.922 -0.9889 -12.2519c3.6878,-5.3357 5.9267,-3.4485 7.1154,3.6742z"/>
    <polygon id="_432126288" class="fil3 str3" points="20.6261,129.398 25.0438,130.492 26.6904,155.826 22.8155,156.143 "/>
    <path id="_432126192" class="fil0 str6" d="M5.7749 128.155l14.656 -1.1424 2.5172 30.7495 -15.9371 1.2434c-1.3962,-10.4263 -1.9288,-20.7273 -1.2361,-30.8505z"/>
    <path id="_432126264" class="fil6" d="M94.7441 157.081c1.2792,1.2688 3.2378,0.6937 4.6759,-0.812 1.0916,-1.1429 0.596,-3.4883 -0.6091,-4.9943l-0.4156 -0.3154c-1.809,0.0082 -1.112,3.4199 -3.6512,6.1217z"/>
    <path id="_432125568" class="fil6 str7" d="M115.665 153.957l-1.753 -1.0741c-0.0376,-1.2412 -0.8205,-1.9694 -0.113,-3.7234 1.2311,1.1799 2.0108,2.6706 1.866,4.7975z"/>
    <polyline id="_432125928" class="fil1 str8" points="116.561,158.113 118.225,167.526 114.5,185.801 "/>
    <g>
     <polyline id="_432125760" class="fil8 str8" points="69.9873,132.323 63.0691,134.387 55.9932,133.371 "/>
     <polygon id="_4321257601" class="fil9" points="56.7163,133.654 55.4843,133.477 56.0243,133.485 55.4089,133.377 56.2579,133.409 55.2519,133.219 55.9371,133.251 55.5348,133.125 56.7668,133.302 "/>
    </g>
    <path class="fil3 str3" d="M105.752 101.01c0.5085,0.3933 3.3736,3.2757 0.8748,1.3428 -3.1893,-2.467 -8.2574,-1.7144 -11.3198,1.6811 -2.2902,2.5393 -2.8099,5.8374 -1.5926,8.3711 -2.2254,-2.6044 -2.0047,-6.6954 0.7178,-9.714 3.0625,-3.3954 8.1305,-4.1481 11.3198,-1.681z"/>
    <path class="fil6" d="M98.8452 226.931l0.0424 -0.2297 0.0424 -0.2296 0.0424 -0.2297 0.1431 -0.1319 -0.2367 -0.0042 0.0936 0.1361 -0.0424 0.2297 -0.0424 0.2296 -0.0424 0.2297 -0.0424 0.2297 -0.1431 0.1318 0.2367 0.0042 -0.0936 -0.136 0.0424 -0.2297zm0.2969 -1.6077l-0.1431 0.1319 0.2367 0.0041 -0.0936 -0.136zm0.8265 -77.6303c-0.0837,2.0609 -0.2001,1.524 0.5259,3.1229 1.2825,1.8631 1.5392,0.3802 1.7181,4.1873l0.1228 1.8058c0.002,0.2065 -0.008,0.1432 -0.0118,0.3418 -0.0132,0.6903 0.1739,1.4763 0.0601,2.1016 0.2702,1.1238 0.4114,3.8694 0.4603,5.1238 0.0881,2.2595 0.1177,4.1138 0.3652,6.3612l0.1115 3.9392c0.2379,1.6198 0.0995,0.9853 0.1721,2.5256l0.0424 2.5955c0.1777,0.9741 0.1845,2.4119 0.2339,3.6345 0.0795,1.9711 -0.0722,1.9075 1.4786,3.3745l0.539 1.6658 0.1826 -0.1257 -0.0427 0.6309c-0.0408,1.3733 0.73,7.6184 0.8749,8.219 0.8574,1.5492 1.082,-0.4415 1.4013,3.4373 0.0847,1.0287 -0.0265,2.4791 0.2837,3.0211 -0.4191,0.5864 -0.2298,2.8759 -0.2826,3.6291 -0.1763,2.5167 -0.5272,4.0656 -0.9576,6.4731 -0.006,0.0334 -0.0153,0.0814 -0.0213,0.1148l-0.6767 2.6063c-0.5667,2.1587 -2.4096,7.126 -3.4533,8.8623 -0.6133,1.0203 -0.4387,1.0071 -0.9416,1.7261 -0.3173,0.4536 -0.0656,0.0443 -0.2742,0.4244 -0.2455,0.4473 -0.4374,0.9235 -0.8063,1.3823l-0.3306 0.3726c-0.0119,0.0184 -0.0336,0.0607 -0.0447,0.0803 -0.4793,0.8492 -0.3532,0.7597 -1.0661,1.7872l-0.5285 0.8524c3.9757,-2.7363 3.4072,-2.3938 5.8332,-7.2354 0.105,-0.2093 0.0864,-0.1942 0.2204,-0.4343 0.4249,-0.7615 0.4106,-0.6522 0.7013,-1.533 0.0108,-0.0327 0.0242,-0.0795 0.0347,-0.1123 0.4407,-1.3903 1.2134,-2.7497 1.549,-4.2265l1.4987 -6.1357c0.5502,-2.4438 0.3164,-2.699 0.6139,-4.6366 0.0944,-0.6151 0.2941,-3.1854 0.0807,-3.785 0.1867,-0.4704 0.0513,-0.9339 0.0082,-1.4235 -0.1772,-2.015 -0.1184,-2.0312 -0.4621,-4.479 1.1565,-0.796 0.9143,-0.7954 1.0811,-1.947 -0.2328,-1.0707 -0.23,-7.3578 -0.1228,-7.8464 0.1208,-0.5505 0.2669,-1.0635 0.2971,-1.5054 0.1605,-0.7455 0.9874,-0.7479 1.1553,-2.0369 0.1198,-0.92 -2.0126,-25.8555 -1.9453,-26.3593 0.1382,-1.0347 -0.1183,-3.541 -0.2679,-4.8174 -0.1126,-0.9608 -0.2572,-1.4299 0.4815,-2.2524 1.0897,-1.2133 0.613,-1.1288 1.085,-2.2285 -0.0109,-0.4666 0.0016,-0.6944 0.0192,-1.1464 0.0379,-0.9747 -0.2155,-4.0823 -1.3772,-4.1353 -1.9934,0.0608 -10.8068,-0.9033 -9.9532,2.1443 0.0774,0.2764 0.3454,1.5958 0.3348,1.859z"/>
    <polygon class="fil10" points="82.9642,240.267 83.0579,240.404 83.466,240.123 83.3723,239.987 "/>
    <polygon class="fil11" points="105.237,121.02 104.883,132.208 106.395,132.256 "/>
    <rect class="fil6 str7" transform="matrix(0.516762 -0.00358637 0.00358637 0.516762 104.3 130.356)" width="4.3922" height="32.502"/>
    <path class="fil12 str9" d="M124.195 101.895c7.5994,11.0411 4.8093,26.1522 -6.2318,33.7516 -11.0411,7.5994 -26.1522,4.8093 -33.7516,-6.2318 -7.5994,-11.0411 -4.8093,-26.1523 6.2318,-33.7516 11.0411,-7.5994 26.1523,-4.8093 33.7516,6.2318zm-2.6473 1.7019c6.6454,9.6551 4.2056,22.8693 -5.4495,29.5147 -9.6551,6.6454 -22.8694,4.2056 -29.5148,-5.4495 -6.6454,-9.6551 -4.2055,-22.8694 5.4496,-29.5148 9.6551,-6.6454 22.8693,-4.2055 29.5147,5.4496z"/>
   </g>
  </g>
 </g>
</svg>
